<svg xmlns="http://www.w3.org/2000/svg" xmlns:xlink="http://www.w3.org/1999/xlink" width="120" zoomAndPan="magnify" viewBox="0 0 810 809.999993" height="120" preserveAspectRatio="xMidYMid meet" version="1.0"><defs><clipPath id="id1"><path d="M 565.8125 266.304688 L 756.460938 266.304688 L 756.460938 459.949219 L 565.8125 459.949219 Z M 565.8125 266.304688 " clip-rule="nonzero"/></clipPath><clipPath id="id2"><path d="M 247.136719 365.578125 L 576.328125 365.578125 L 576.328125 640.964844 L 247.136719 640.964844 Z M 247.136719 365.578125 " clip-rule="nonzero"/></clipPath></defs><path fill="rgb(0%, 0%, 0%)" d="M 297.351562 131.984375 C 422.410156 114.453125 432.519531 338.375 316.796875 332.957031 C 223.761719 328.601562 188.65625 147.21875 297.351562 131.984375 " fill-opacity="1" fill-rule="evenodd"/><path fill="rgb(0%, 0%, 0%)" d="M 498.363281 131.984375 C 636.105469 101.925781 620.023438 346.570312 491.886719 332.957031 C 390.464844 322.179688 410.222656 151.214844 498.363281 131.984375 " fill-opacity="1" fill-rule="evenodd"/><path fill="rgb(0%, 0%, 0%)" d="M 251.96875 401.027344 C 202.984375 507.929688 53.710938 432.410156 70.402344 326.46875 C 87.972656 214.882812 287.585938 271.769531 251.96875 401.027344 " fill-opacity="1" fill-rule="evenodd"/><g clip-path="url(#id1)"><path fill="rgb(0%, 0%, 0%)" d="M 657.242188 268.128906 C 689.457031 261.890625 729.734375 273.339844 744.769531 300.535156 C 786.25 375.585938 709.800781 467.304688 634.535156 459.367188 C 593.203125 455.027344 569.328125 419.847656 566.453125 388.0625 C 560.304688 319.976562 608.902344 277.480469 657.242188 268.128906 " fill-opacity="1" fill-rule="evenodd"/></g><g clip-path="url(#id2)"><path fill="rgb(0%, 0%, 0%)" d="M 378.40625 368.605469 C 492.003906 349.019531 596.292969 430.863281 572.941406 569.578125 C 568.101562 598.292969 543.378906 638.890625 508.085938 640.894531 C 479.601562 642.519531 446.292969 614.792969 410.832031 614.964844 C 366.796875 615.179688 332.085938 654.21875 290.859375 634.421875 C 256.242188 617.773438 242.246094 550.480469 248.722656 501.519531 C 258.039062 430.929688 309.949219 380.410156 378.40625 368.605469 " fill-opacity="1" fill-rule="evenodd"/></g></svg>
