<svg xmlns="http://www.w3.org/2000/svg" xmlns:xlink="http://www.w3.org/1999/xlink" width="50" zoomAndPan="magnify" viewBox="0 0 810 809.999993" height="50" preserveAspectRatio="xMidYMid meet" version="1.0"><path fill="rgb(0%, 0%, 0%)" d="M 646.265625 543.152344 C 645.730469 543.152344 645.730469 543.152344 645.730469 543.6875 C 655.386719 555.480469 672.015625 583.890625 645.730469 620.34375 C 643.046875 624.09375 640.363281 628.382812 636.609375 631.597656 C 636.609375 631.597656 636.074219 632.136719 636.074219 632.136719 C 611.394531 654.648438 564.1875 663.226562 532.535156 626.773438 C 525.5625 618.734375 520.734375 611.230469 517.515625 604.261719 C 506.25 582.820312 497.667969 532.429688 492.300781 527.605469 L 207.980469 378.585938 C 207.980469 378.585938 161.847656 418.789062 125.902344 406.460938 C 113.027344 402.171875 100.152344 393.59375 89.425781 382.335938 C 89.425781 382.335938 48.117188 342.667969 75.476562 303.003906 C 100.152344 267.085938 135.023438 267.085938 141.996094 267.085938 C 138.777344 263.871094 83.523438 204.90625 128.585938 165.773438 C 150.042969 147.011719 174.183594 146.476562 194.03125 155.054688 C 194.570312 155.054688 194.570312 155.054688 194.570312 155.054688 C 195.105469 155.054688 195.105469 155.589844 195.640625 155.589844 C 257.871094 180.78125 259.480469 240.820312 257.871094 261.726562 L 584.574219 441.839844 C 591.011719 433.261719 601.203125 423.078125 616.222656 417.179688 C 625.878906 413.429688 635 412.890625 643.046875 413.964844 C 655.921875 415.035156 666.113281 419.859375 673.625 425.757812 C 675.769531 427.363281 677.917969 429.507812 680.0625 431.117188 C 683.28125 433.796875 686.5 437.550781 688.644531 441.300781 C 689.183594 441.839844 689.71875 442.910156 689.71875 443.445312 C 707.421875 471.855469 703.667969 508.84375 686.5 526.535156 C 669.871094 543.6875 653.238281 543.6875 646.265625 543.152344 Z M 646.265625 543.152344 " fill-opacity="1" fill-rule="nonzero"/><path fill="rgb(100%, 8.628845%, 8.628845%)" d="M 259.480469 306.21875 C 272.890625 311.578125 285.765625 317.476562 299.179688 322.835938 C 312.054688 328.730469 325.464844 334.09375 338.339844 339.988281 C 351.214844 345.886719 365.164062 350.710938 376.964844 358.214844 C 389.304688 365.71875 401.105469 373.761719 411.835938 383.945312 L 411.296875 385.554688 C 396.8125 382.875 382.867188 378.046875 369.992188 372.6875 C 356.578125 367.328125 344.777344 358.75 332.4375 351.78125 C 320.101562 344.8125 307.761719 337.308594 295.421875 330.339844 C 283.085938 322.835938 270.746094 315.332031 258.945312 307.828125 Z M 259.480469 306.21875 " fill-opacity="1" fill-rule="nonzero"/></svg>